<?xml version="1.0" encoding="utf-8"?>
<!-- Generator: Adobe Illustrator 24.0.3, SVG Export Plug-In . SVG Version: 6.00 Build 0)  -->
<svg version="1.1" id="Capa_1" xmlns="http://www.w3.org/2000/svg" xmlns:xlink="http://www.w3.org/1999/xlink" x="0px" y="0px"
	 viewBox="0 0 99 99" style="enable-background:new 0 0 99 99;" xml:space="preserve">
<path d="M68.8,49.6c14.7,5.5,13.4,21.4,4,29.3c-10.9,9.2-25.2,9-38.7,9.1c-1,0.1-2.4,0.8-2.9,1.7c-3.4,5.4-15.3,5-13.2-3.6
	c1.5-18.1,4.4-36,9.2-53.5c1.5-5.3,7-7.7,12.1-5.4c2.5,1.2,2,3.2,1.5,5.1c-3.7,15.1-7.2,29.5-8.9,45.1c35.3,5.4,45.7-21.5,19.4-23.6
	c-6.8,0.5-5.6-9.7,0.1-9.9c8.2-1.2,17.9-1.3,23-9c7.4-11.6-8-18.9-17.8-18c-14.3-0.5-27.7,2.9-40.2,9.8c-6,4.1-9.9-2.7-5.6-7.9
	C29.8,3.1,99.4-5.1,88.9,34.6C85.7,43.3,77.1,46.8,68.8,49.6z"/>
</svg>
